<svg xmlns="http://www.w3.org/2000/svg" viewBox="0 0 332.03 118.27"><defs><style>.cls-1{fill:#fff;}</style></defs><path class="cls-1" d="M209.31,82.22a23.93,23.93,0,0,0-23.51,19.62L174,98.6A6.41,6.41,0,0,0,170.51,94l0-.9a18.84,18.84,0,1,0-5.65-.59L164.84,94a6.65,6.65,0,0,0-1.68,1.19l-14.77-4.59a24,24,0,1,0-1.48,5.47l14.42,4.49a6.38,6.38,0,0,0,2.92,4.58l-.95,8.26a30.16,30.16,0,1,0,5.66.45l.93-8.11a6.22,6.22,0,0,0,2.5-1.68l13.07,3.58a23.9,23.9,0,1,0,23.85-25.4ZM139.66,91a15.39,15.39,0,1,1-11.15-18.7A15.41,15.41,0,0,1,139.66,91Zm19.67-16.69a10.35,10.35,0,1,1,10.35,10.35A10.36,10.36,0,0,1,159.33,74.27Zm26.07,69.26a21.66,21.66,0,1,1-21.66-21.66A21.68,21.68,0,0,1,185.4,143.53Zm23.91-22a15.4,15.4,0,1,1,15.39-15.4A15.42,15.42,0,0,1,209.31,121.52Z" transform="translate(-100.82 -55.42)"/><path class="cls-1" d="M277.5,115.12l-.81,12.56H241.3v-2.14c.6,0,1.4-.12,2.4-.25a8.07,8.07,0,0,0,2-.41,2.72,2.72,0,0,0,1.33-1.17,3.94,3.94,0,0,0,.38-1.83V91.24a4.42,4.42,0,0,0-.33-1.76,2.56,2.56,0,0,0-1.38-1.25,10.23,10.23,0,0,0-2.18-.69,16.4,16.4,0,0,0-2.18-.36V85.05h33V95.32H272a13.71,13.71,0,0,0-2.6-4.85q-2-2.56-3.8-2.81-.93-.12-2.22-.18t-2.94-.06h-6.7v17h4.8a9.56,9.56,0,0,0,3.38-.44,4.65,4.65,0,0,0,1.88-1.46,7.66,7.66,0,0,0,1.13-2.33,14.52,14.52,0,0,0,.61-2.74h2.26v16.7h-2.26a13.42,13.42,0,0,0-.64-3,7.8,7.8,0,0,0-1.1-2.33,4.33,4.33,0,0,0-2.12-1.53,11.09,11.09,0,0,0-3.14-.36h-4.8V119.6a13.39,13.39,0,0,0,.27,3,2.81,2.81,0,0,0,1.05,1.68,4.5,4.5,0,0,0,2.13.74,34.14,34.14,0,0,0,3.85.16h2.61a26,26,0,0,0,2.73-.12,15.91,15.91,0,0,0,2.36-.43,3.62,3.62,0,0,0,1.73-.86,19.2,19.2,0,0,0,2.9-4.37,29.52,29.52,0,0,0,1.94-4.31Z" transform="translate(-100.82 -55.42)"/><path class="cls-1" d="M315.38,114.37,314,127.68H279.72v-1.06l26.83-39.2h-9.83c-1.14,0-2.09,0-2.87.06a16,16,0,0,0-2.11.24c-1.32.26-2.81,1.36-4.46,3.28a21,21,0,0,0-3.74,6.1h-2.11l1.3-12h31.93v1l-26.83,39.2H298a43.88,43.88,0,0,0,5.43-.36c1.93-.24,3.18-.65,3.76-1.23a23,23,0,0,0,3.63-4.57,30,30,0,0,0,2.49-4.77Z" transform="translate(-100.82 -55.42)"/><path class="cls-1" d="M354.7,115.12l-.81,12.56H318.5v-2.14c.6,0,1.4-.12,2.4-.25a8.07,8.07,0,0,0,2-.41,2.72,2.72,0,0,0,1.33-1.17,3.94,3.94,0,0,0,.38-1.83V91.24a4.42,4.42,0,0,0-.33-1.76,2.56,2.56,0,0,0-1.38-1.25,10.23,10.23,0,0,0-2.18-.69,16.4,16.4,0,0,0-2.18-.36V85.05h33V95.32h-2.25a13.71,13.71,0,0,0-2.6-4.85q-2-2.56-3.8-2.81-.93-.12-2.22-.18t-2.94-.06H331v17h4.8a9.56,9.56,0,0,0,3.38-.44,4.65,4.65,0,0,0,1.88-1.46,7.66,7.66,0,0,0,1.13-2.33,14.52,14.52,0,0,0,.61-2.74H345v16.7h-2.26a13.42,13.42,0,0,0-.64-3,7.8,7.8,0,0,0-1.1-2.33,4.33,4.33,0,0,0-2.12-1.53,11.09,11.09,0,0,0-3.14-.36H331V119.6a13.39,13.39,0,0,0,.27,3,2.81,2.81,0,0,0,1.05,1.68,4.5,4.5,0,0,0,2.13.74,34.14,34.14,0,0,0,3.85.16h2.61a26,26,0,0,0,2.73-.12,15.91,15.91,0,0,0,2.36-.43,3.62,3.62,0,0,0,1.73-.86,19.2,19.2,0,0,0,2.9-4.37,29.52,29.52,0,0,0,1.94-4.31Z" transform="translate(-100.82 -55.42)"/><path class="cls-1" d="M393.72,96.62h-2.07a14,14,0,0,0-1-2.57,23.15,23.15,0,0,0-1.58-2.81,14.11,14.11,0,0,0-2-2.42,4,4,0,0,0-2.07-1.19q-.93-.12-2.34-.18c-.95,0-1.82-.06-2.62-.06h-1.75v34.1a3.92,3.92,0,0,0,.42,1.81,2.76,2.76,0,0,0,1.47,1.28,17.93,17.93,0,0,0,2.27.57,16.69,16.69,0,0,0,2.69.39v2.14H365.06v-2.14c.56,0,1.42-.12,2.57-.24a9.93,9.93,0,0,0,2.39-.45,2.92,2.92,0,0,0,1.46-1.12,3.66,3.66,0,0,0,.46-2V87.39H370.2c-.62,0-1.39,0-2.31,0s-1.81.09-2.65.19a3.71,3.71,0,0,0-2.06,1.19,15.8,15.8,0,0,0-2,2.42,20.45,20.45,0,0,0-1.59,2.87,16.12,16.12,0,0,0-1,2.51h-2.1V85.05h37.16Z" transform="translate(-100.82 -55.42)"/><path class="cls-1" d="M432.86,127.68H415.14v-2.14a18.43,18.43,0,0,0,3.89-.6c1-.3,1.54-.67,1.54-1.11a4.46,4.46,0,0,0-.06-.66,3.15,3.15,0,0,0-.18-.69l-3.53-9.55h-15c-.56,1.4-1,2.62-1.37,3.66s-.66,2-1,2.89a20.53,20.53,0,0,0-.54,2.1,7.57,7.57,0,0,0-.15,1.32c0,.8.63,1.42,1.9,1.86a15.23,15.23,0,0,0,4.26.78v2.14H388.94v-2.14a12.54,12.54,0,0,0,1.95-.34,6.35,6.35,0,0,0,1.92-.77,7.45,7.45,0,0,0,1.87-1.7,11.06,11.06,0,0,0,1.29-2.44q3.21-8,7.09-18T410,84.45h2.4l14.21,36.77a7.22,7.22,0,0,0,1,1.89,7,7,0,0,0,1.59,1.41,6.68,6.68,0,0,0,1.8.71,9.14,9.14,0,0,0,1.87.31Zm-17.15-17.43-6.46-16.54-6.36,16.54Z" transform="translate(-100.82 -55.42)"/><path class="cls-1" d="M220.45,158.68h-8.94v-16h8.94v1.65h-7.08v5.17H220v1.65h-6.65V157h7.08Z" transform="translate(-100.82 -55.42)"/><path class="cls-1" d="M228.22,158.9a4.38,4.38,0,0,1-3.63-1.63,7.13,7.13,0,0,1-1.31-4.56,7.21,7.21,0,0,1,1.32-4.61,4.43,4.43,0,0,1,3.66-1.66,4.37,4.37,0,0,1,3.8,1.87h.1l.26-1.65h1.44v17.42H232v-5.15a12.25,12.25,0,0,1,.12-1.86H232A4.29,4.29,0,0,1,228.22,158.9Zm.27-1.52a3.32,3.32,0,0,0,2.66-1,5.35,5.35,0,0,0,.89-3.29v-.4a6,6,0,0,0-.86-3.63,3.2,3.2,0,0,0-2.71-1.11,2.78,2.78,0,0,0-2.45,1.24,6.17,6.17,0,0,0-.85,3.52,6,6,0,0,0,.84,3.46A2.85,2.85,0,0,0,228.49,157.38Z" transform="translate(-100.82 -55.42)"/><path class="cls-1" d="M239.65,146.66v7.8a3.15,3.15,0,0,0,.67,2.19,2.72,2.72,0,0,0,2.1.73,3.43,3.43,0,0,0,2.75-1,5.16,5.16,0,0,0,.88-3.37v-6.32h1.82v12h-1.51l-.26-1.61H246a3.6,3.6,0,0,1-1.55,1.36,5.13,5.13,0,0,1-2.26.47,4.62,4.62,0,0,1-3.29-1,4.42,4.42,0,0,1-1.09-3.33v-7.87Z" transform="translate(-100.82 -55.42)"/><path class="cls-1" d="M251.8,143.4a1.18,1.18,0,0,1,.31-.91,1.07,1.07,0,0,1,.76-.29,1.09,1.09,0,0,1,.76.29,1.47,1.47,0,0,1,0,1.83,1.06,1.06,0,0,1-.76.3,1,1,0,0,1-.76-.3A1.22,1.22,0,0,1,251.8,143.4Zm2,15.28H252v-12h1.82Z" transform="translate(-100.82 -55.42)"/><path class="cls-1" d="M263.45,158.9a5.15,5.15,0,0,1-2.14-.43,4,4,0,0,1-1.63-1.33h-.13a17.61,17.61,0,0,1,.13,2v5h-1.82V146.66h1.48l.25,1.65h.09a4.22,4.22,0,0,1,1.63-1.43,5,5,0,0,1,2.14-.44,4.43,4.43,0,0,1,3.69,1.64,8.7,8.7,0,0,1,0,9.18A4.43,4.43,0,0,1,263.45,158.9ZM263.19,148a3.24,3.24,0,0,0-2.67,1,5.21,5.21,0,0,0-.84,3.25v.4a6.06,6.06,0,0,0,.84,3.63,3.25,3.25,0,0,0,2.71,1.09,2.82,2.82,0,0,0,2.44-1.26,6,6,0,0,0,.89-3.48,5.74,5.74,0,0,0-.89-3.45A2.9,2.9,0,0,0,263.19,148Z" transform="translate(-100.82 -55.42)"/><path class="cls-1" d="M282.22,152.66a6.62,6.62,0,0,1-1.48,4.59,5.22,5.22,0,0,1-4.09,1.65,5.45,5.45,0,0,1-2.86-.75,5,5,0,0,1-1.93-2.18,7.44,7.44,0,0,1-.68-3.31,6.63,6.63,0,0,1,1.47-4.58,5.21,5.21,0,0,1,4.08-1.64,5.09,5.09,0,0,1,4,1.68A6.6,6.6,0,0,1,282.22,152.66Zm-9.16,0a5.65,5.65,0,0,0,.93,3.51,3.17,3.17,0,0,0,2.71,1.21,3.22,3.22,0,0,0,2.71-1.2,5.68,5.68,0,0,0,.93-3.52,5.55,5.55,0,0,0-.93-3.48,3.27,3.27,0,0,0-2.74-1.19,3.22,3.22,0,0,0-2.7,1.17A5.71,5.71,0,0,0,273.06,152.66Z" transform="translate(-100.82 -55.42)"/><path class="cls-1" d="M289.64,162.91a3.68,3.68,0,0,1-1.63-.3V161a5.83,5.83,0,0,0,1.63.22,2.06,2.06,0,0,0,1.65-.66,2.87,2.87,0,0,0,.56-1.9v-16h1.87v15.88a4.6,4.6,0,0,1-1.06,3.23A3.91,3.91,0,0,1,289.64,162.91Z" transform="translate(-100.82 -55.42)"/><path class="cls-1" d="M299.63,146.66v7.8a3.15,3.15,0,0,0,.67,2.19,2.72,2.72,0,0,0,2.1.73,3.43,3.43,0,0,0,2.75-1A5.16,5.16,0,0,0,306,153v-6.32h1.82v12h-1.5l-.27-1.61H306a3.6,3.6,0,0,1-1.55,1.36,5.13,5.13,0,0,1-2.26.47,4.62,4.62,0,0,1-3.29-1,4.42,4.42,0,0,1-1.09-3.33v-7.87Z" transform="translate(-100.82 -55.42)"/><path class="cls-1" d="M317.42,146.44a7.66,7.66,0,0,1,1.43.13l-.25,1.69a6.2,6.2,0,0,0-1.32-.16,3.19,3.19,0,0,0-2.49,1.18,4.34,4.34,0,0,0-1,2.95v6.45h-1.82v-12h1.51l.2,2.23h.09a5.29,5.29,0,0,1,1.61-1.81A3.67,3.67,0,0,1,317.42,146.44Z" transform="translate(-100.82 -55.42)"/><path class="cls-1" d="M321.25,144.8c.35-.46.73-1,1.13-1.65a16.12,16.12,0,0,0,1-1.68h2.22v.24a16.71,16.71,0,0,1-1.44,1.75,15.92,15.92,0,0,1-1.65,1.61h-1.22Zm1.9,13.88h-1.82v-12h1.82Z" transform="translate(-100.82 -55.42)"/><path class="cls-1" d="M335.41,157.07h-.09a4.3,4.3,0,0,1-3.78,1.83,4.49,4.49,0,0,1-3.67-1.61,8.7,8.7,0,0,1,0-9.2,4.86,4.86,0,0,1,7.41.13h.15l-.08-.87,0-.84v-4.89h1.82v17.06h-1.49Zm-3.64.31a3.31,3.31,0,0,0,2.71-1,5.15,5.15,0,0,0,.84-3.27v-.38a6,6,0,0,0-.86-3.65,3.21,3.21,0,0,0-2.71-1.09,2.78,2.78,0,0,0-2.45,1.24,6.17,6.17,0,0,0-.85,3.52,5.94,5.94,0,0,0,.84,3.47A2.86,2.86,0,0,0,331.77,157.38Z" transform="translate(-100.82 -55.42)"/><path class="cls-1" d="M341.07,143.4a1.22,1.22,0,0,1,.3-.91,1.15,1.15,0,0,1,1.53,0,1.47,1.47,0,0,1,0,1.83,1.13,1.13,0,0,1-1.53,0A1.26,1.26,0,0,1,341.07,143.4Zm2,15.28h-1.82v-12H343Z" transform="translate(-100.82 -55.42)"/><path class="cls-1" d="M351.93,158.9a5.12,5.12,0,0,1-4-1.6,6.65,6.65,0,0,1-1.43-4.55,6.79,6.79,0,0,1,1.45-4.66,5.23,5.23,0,0,1,4.14-1.65,8.41,8.41,0,0,1,1.73.19,5.28,5.28,0,0,1,1.36.44l-.55,1.54a9.73,9.73,0,0,0-1.32-.4,6.37,6.37,0,0,0-1.26-.16c-2.44,0-3.67,1.56-3.67,4.68a5.55,5.55,0,0,0,.9,3.4,3.1,3.1,0,0,0,2.65,1.18,8.1,8.1,0,0,0,3.08-.64v1.61A6.69,6.69,0,0,1,351.93,158.9Z" transform="translate(-100.82 -55.42)"/><path class="cls-1" d="M368.42,152.66a6.62,6.62,0,0,1-1.48,4.59,5.22,5.22,0,0,1-4.09,1.65,5.42,5.42,0,0,1-2.86-.75,5,5,0,0,1-1.93-2.18,7.44,7.44,0,0,1-.68-3.31,6.63,6.63,0,0,1,1.47-4.58,5.21,5.21,0,0,1,4.08-1.64,5.07,5.07,0,0,1,4,1.68A6.56,6.56,0,0,1,368.42,152.66Zm-9.16,0a5.72,5.72,0,0,0,.92,3.51,3.2,3.2,0,0,0,2.71,1.21,3.24,3.24,0,0,0,2.72-1.2,5.68,5.68,0,0,0,.92-3.52,5.56,5.56,0,0,0-.92-3.48,3.27,3.27,0,0,0-2.74-1.19,3.22,3.22,0,0,0-2.7,1.17A5.71,5.71,0,0,0,359.26,152.66Z" transform="translate(-100.82 -55.42)"/><path class="cls-1" d="M380,158.68h-1.86v-16h8.94v1.65H380v5.87h6.65v1.66H380Z" transform="translate(-100.82 -55.42)"/><path class="cls-1" d="M389.56,143.4a1.18,1.18,0,0,1,.31-.91,1.07,1.07,0,0,1,.76-.29,1.09,1.09,0,0,1,.76.29,1.47,1.47,0,0,1,0,1.83,1.06,1.06,0,0,1-.76.3,1,1,0,0,1-.76-.3A1.22,1.22,0,0,1,389.56,143.4Zm2,15.28h-1.82v-12h1.82Z" transform="translate(-100.82 -55.42)"/><path class="cls-1" d="M403.37,155.4a3,3,0,0,1-1.25,2.59,5.84,5.84,0,0,1-3.51.91,7.73,7.73,0,0,1-3.73-.75v-1.69a9.37,9.37,0,0,0,1.86.69,7.67,7.67,0,0,0,1.92.25,4.25,4.25,0,0,0,2.19-.46,1.56,1.56,0,0,0,.16-2.58,9.36,9.36,0,0,0-2.37-1.18,13.14,13.14,0,0,1-2.39-1.09A3.3,3.3,0,0,1,395.2,151a2.79,2.79,0,0,1-.35-1.42,2.7,2.7,0,0,1,1.2-2.32,5.61,5.61,0,0,1,3.28-.85,9.68,9.68,0,0,1,3.79.79l-.65,1.48a8.8,8.8,0,0,0-3.27-.74,3.8,3.8,0,0,0-2,.4,1.26,1.26,0,0,0-.66,1.12,1.38,1.38,0,0,0,.25.82,2.38,2.38,0,0,0,.8.65,16.52,16.52,0,0,0,2.1.89,7.78,7.78,0,0,1,2.89,1.57A2.76,2.76,0,0,1,403.37,155.4Z" transform="translate(-100.82 -55.42)"/><path class="cls-1" d="M411.36,158.9a5.14,5.14,0,0,1-4-1.6,6.65,6.65,0,0,1-1.43-4.55,6.79,6.79,0,0,1,1.45-4.66,5.23,5.23,0,0,1,4.14-1.65,8.58,8.58,0,0,1,1.74.19,5.56,5.56,0,0,1,1.36.44l-.56,1.54a9.31,9.31,0,0,0-1.32-.4,6.2,6.2,0,0,0-1.26-.16q-3.66,0-3.66,4.68a5.55,5.55,0,0,0,.89,3.4,3.11,3.11,0,0,0,2.65,1.18,8.1,8.1,0,0,0,3.08-.64v1.61A6.66,6.66,0,0,1,411.36,158.9Z" transform="translate(-100.82 -55.42)"/><path class="cls-1" d="M424.87,158.68l-.36-1.71h-.09a5.17,5.17,0,0,1-1.79,1.53,5.44,5.44,0,0,1-2.24.4,4,4,0,0,1-2.8-.92,3.38,3.38,0,0,1-1-2.62q0-3.65,5.82-3.82l2-.06v-.75a3,3,0,0,0-.61-2.09,2.48,2.48,0,0,0-1.94-.67,7.8,7.8,0,0,0-3.4.92l-.56-1.39a8.08,8.08,0,0,1,1.94-.76,8.65,8.65,0,0,1,2.13-.28,4.55,4.55,0,0,1,3.18,1,4,4,0,0,1,1,3.06v8.2Zm-4.11-1.28a3.71,3.71,0,0,0,2.67-.93,3.47,3.47,0,0,0,1-2.61v-1.09l-1.82.08a6.59,6.59,0,0,0-3.13.67,2,2,0,0,0-1,1.86,1.89,1.89,0,0,0,.59,1.5A2.47,2.47,0,0,0,420.76,157.4Z" transform="translate(-100.82 -55.42)"/><path class="cls-1" d="M432,158.68h-1.82V141.62H432Z" transform="translate(-100.82 -55.42)"/></svg>